# xmcd CD database file
#
# Track frame offsets:
#	150
#	23665
#	46635
#	84250
#	99615
#	122440
#	144877
#
# Disc length: 2404 seconds
#
# Revision: 0
# Processed by: cddbd v1.5.2PL0 Copyright (c) Steve Scherf et al.
# Submitted via: CDex 1.51
#
DISCID=43096207
DTITLE=Paul Desmond - Paul Desmond y The Moderns Jazz Quartet
DYEAR=1993
DGENRE=Jazz
TTITLE0=Paul Desmond - Bag's New Groove
TTITLE1=Paul Desmond - Blue Dove
TTITLE2=Paul Desmond - East Of The Sun
TTITLE3=Paul Desmond - Greensleeves
TTITLE4=Paul Desmond - Here's That Rainy Day
TTITLE5=Paul Desmond - Jesus Christ Superstar
TTITLE6=Paul Desmond - You Go To My Head
EXTD=YEAR: 1993
EXTT0=
EXTT1=
EXTT2=
EXTT3=
EXTT4=
EXTT5=
EXTT6=
PLAYORDER=
